# xmcd CD database file
#
# Track frame offsets:
#	150
#	8276
#	21731
#	31162
#	41846
#	50291
#	60308
#	70104
#	80817
#	91194
#	102524
#	112459
#	124889
#	135969
#	144848
#	154296
#	163080
#	174977
#	184557
#	194120
#	201684
#	209901
#	218521
#	228140
#	239361
#
# Disc length: 3340 seconds
#
# Revision: 0
# Processed by: cddbd v1.5.2PL0 Copyright (c) Steve Scherf et al.
# Submitted via: CDex 1.51
#
DISCID=690d0a19
DTITLE=Johnny Cash - 100 Hits Disc 3
DYEAR=2017
DGENRE=Country
TTITLE0=Five Feet High And Rising
TTITLE1=Don't Take Your Guns To Town
TTITLE2=I Got Stripes
TTITLE3=I Heard That Lonesome Whistle
TTITLE4=Drink To Me
TTITLE5=Girl In Saskatoon
TTITLE6=The Rock Island Line
TTITLE7=I Just Thought You'd Like To Know
TTITLE8=Frankie's Man, Johnny
TTITLE9=Don't Step On Mother's Roses
TTITLE10=Hank And Joe And Me
TTITLE11=My Grandfather's Clock
TTITLE12=Seasons Of My Heart
TTITLE13=I Want To Go Home
TTITLE14=The Caretaker
TTITLE15=Second Honeymoon
TTITLE16=You're The Nearest Thing To Heaven
TTITLE17=The Great Speckled Bird
TTITLE18=What Do I Care
TTITLE19=Come In, Stranger
TTITLE20=It Could Be You
TTITLE21=Lorena 
TTITLE22=Man On The Hill
TTITLE23=Clementine
TTITLE24=Remember The Alamo
EXTD=YEAR: 2017
EXTT0=
EXTT1=
EXTT2=
EXTT3=
EXTT4=
EXTT5=
EXTT6=
EXTT7=
EXTT8=
EXTT9=
EXTT10=
EXTT11=
EXTT12=
EXTT13=
EXTT14=
EXTT15=
EXTT16=
EXTT17=
EXTT18=
EXTT19=
EXTT20=
EXTT21=
EXTT22=
EXTT23=
EXTT24=
PLAYORDER=
